<?xml version="1.0" encoding="utf-8"?>
<!-- Generator: Adobe Illustrator 27.0.1, SVG Export Plug-In . SVG Version: 6.00 Build 0)  -->
<svg version="1.1" id="Layer_1" xmlns="http://www.w3.org/2000/svg" xmlns:xlink="http://www.w3.org/1999/xlink" x="0px" y="0px"
	 viewBox="0 0 500 500" style="enable-background:new 0 0 500 500;" xml:space="preserve">
<style type="text/css">
	.st0{fill:#FFC505;}
</style>
<g>
	<circle class="st0" cx="250" cy="250" r="250"/>
</g>
<g>
	<rect x="266.7" y="180" width="13.3" height="80"/>
	<rect x="293.3" y="180" width="80" height="13.3"/>
	<path d="M393.3,180c-3.7,0-6.7,3-6.7,6.7V260H400v-66.7h20V180H393.3z"/>
	<path d="M333.3,200c-2.2,0-4.2,1-5.4,2.8l-37.2,52.1l10.8,7.8l31.8-44.5l31.8,44.5l10.8-7.8l-37.2-52.1
		C337.5,201,335.5,200,333.3,200z"/>
	<polygon points="133.3,273.3 106.7,273.3 93.3,273.3 80,273.3 80,286.7 93.3,286.7 93.3,320 106.7,320 106.7,286.7 133.3,286.7 
		133.3,320 146.7,320 146.7,286.7 160,286.7 160,273.3 146.7,273.3 	"/>
	<g>
		<g>
			<path d="M415.4,313.3l-12.1-22.7l-12.1,22.7l-4.6-2.4l14.4-27c0.5-0.9,1.3-1.4,2.3-1.4s1.9,0.5,2.3,1.4l14.4,27L415.4,313.3z"/>
		</g>
		<polygon points="231.4,285.8 227.4,282.5 216.5,296.1 205.6,282.5 201.6,285.8 213.9,301.2 213.9,313.3 219.1,313.3 219.1,301.2 
					"/>
		<path d="M291.5,282.5h-12.8c-1.4,0-2.6,1.2-2.6,2.6v28.3h5.1v-25.7h10.3c2.8,0,5.1,2.3,5.1,5.1c0,2.8-2.3,5.1-5.1,5.1h-7.7v5.1
			h7.7c5.7,0,10.3-4.6,10.3-10.3S297.2,282.5,291.5,282.5z"/>
		<path d="M191.9,302.6c4.1-1.3,7.1-5.2,7.1-9.8c0-5.7-4.6-10.3-10.3-10.3h-12.8c-1.4,0-2.6,1.2-2.6,2.6v28.3h5.1v-25.7h10.3
			c2.8,0,5.1,2.3,5.1,5.1c0,2.8-2.3,5.1-5.1,5.1h-2.6c-1,0-2,0.6-2.4,1.6c-0.4,1-0.2,2.1,0.6,2.8l10.3,10.3c0.5,0.5,1.2,0.8,1.8,0.8
			c0.7,0,1.3-0.3,1.8-0.8c1-1,1-2.6,0-3.6L191.9,302.6z"/>
		<g>
			<rect x="306.9" y="282.5" width="5.1" height="30.8"/>
		</g>
		<path d="M258.1,282.5v16.7c0,5-4,9-9,9s-9-4-9-9v-16.7H235v16.7c0,7.8,6.3,14.1,14.1,14.1c7.8,0,14.1-6.3,14.1-14.1v-16.7H258.1z"
			/>
		<g>
			<path d="M348.1,313.3h-28.3c-1.2,0-2.2-0.8-2.5-2s0.3-2.4,1.4-2.9l16-8h-14.8c-1.2,0-2.2-0.8-2.5-2s0.3-2.4,1.4-2.9l16-8h-17.4
				v-5.1h28.3c1.2,0,2.2,0.8,2.5,2c0.3,1.2-0.3,2.4-1.4,2.9l-16,8h14.8c1.2,0,2.2,0.8,2.5,2c0.3,1.2-0.3,2.4-1.4,2.9l-16,8h17.4
				V313.3z"/>
		</g>
		<g>
			<path d="M384,313.3h-28.3c-1.2,0-2.2-0.8-2.5-2s0.3-2.4,1.4-2.9l16-8h-14.8c-1.2,0-2.2-0.8-2.5-2s0.3-2.4,1.4-2.9l16-8h-17.4
				v-5.1h28.3c1.2,0,2.2,0.8,2.5,2c0.3,1.2-0.3,2.4-1.4,2.9l-16,8h14.8c1.2,0,2.2,0.8,2.5,2c0.3,1.2-0.3,2.4-1.4,2.9l-16,8H384
				V313.3z"/>
		</g>
	</g>
	<g>
		<path d="M160,246.7h-6.7h-38.4l41.4-20.7c2.8-1.4,4.2-4.5,3.5-7.5s-3.4-5.1-6.5-5.1h-38.4l41.4-20.7c2.8-1.4,4.2-4.5,3.5-7.5
			c-0.7-3-3.4-5.1-6.5-5.1H80v13.3h45.1L83.7,214c-2.8,1.4-4.2,4.5-3.5,7.5s3.4,5.1,6.5,5.1h38.4l-41.4,20.7
			c-2.8,1.4-4.2,4.5-3.5,7.5s3.4,5.1,6.5,5.1h66.7h6.7V246.7z"/>
		<path d="M253.3,193.3V180H200h-13.3h-13.3v13.3h13.3v40c0,2.5,1.4,4.7,3.5,5.9c2.2,1.2,4.8,1,6.8-0.3l29.6-19.8v27.5H180h-6.7V260
			h6.7h46.7H240h13.3v-13.3H240v-40c0-2.5-1.4-4.7-3.5-5.9c-2.2-1.2-4.8-1-6.8,0.3L200,220.9v-27.5H253.3z"/>
	</g>
</g>
</svg>
